<svg width="50vw" height="50vh" style="display: block; margin: auto;">
  <mask id="svgmask2">
    <svg id="svg" version="1.1" xmlns="http://www.w3.org/2000/svg" xmlns:xlink="http://www.w3.org/1999/xlink" width="50vw" height="50vh" viewBox="0, 0, 400,266.1818181818182"><g id="svgg"><path id="path1" d="M181.568 0.363 C 181.317 0.554,179.280 0.920,177.041 1.177 C 174.802 1.434,171.411 1.873,169.507 2.152 C 167.603 2.431,163.169 3.073,159.654 3.579 C 151.551 4.745,148.345 5.260,146.338 5.720 C 145.459 5.921,143.602 6.282,142.210 6.522 C 119.199 10.491,87.469 22.328,67.224 34.495 C 55.147 41.754,40.271 53.217,33.124 60.773 C 17.551 77.235,8.509 92.741,3.620 111.366 C 3.094 113.370,2.549 115.313,2.408 115.684 C 2.266 116.055,1.849 117.819,1.480 119.603 C 1.111 121.388,0.627 123.125,0.405 123.465 C -0.065 124.182,-0.218 142.743,0.246 142.743 C 0.563 142.743,0.926 143.926,1.470 146.738 C 1.710 147.983,2.187 149.960,2.529 151.132 C 2.871 152.304,3.647 155.106,4.253 157.359 C 14.166 194.219,48.598 227.248,97.337 246.649 C 106.333 250.230,116.871 253.780,123.650 255.513 C 124.997 255.857,127.520 256.519,129.257 256.984 C 137.274 259.130,151.240 261.793,160.719 262.983 C 162.623 263.222,164.935 263.589,165.857 263.798 C 167.508 264.173,172.216 264.780,177.029 265.238 C 178.383 265.367,179.870 265.661,180.332 265.892 C 181.520 266.484,217.437 266.533,218.588 265.943 C 218.984 265.741,221.585 265.317,224.368 265.000 C 227.150 264.684,230.506 264.248,231.824 264.033 C 233.142 263.817,235.839 263.400,237.816 263.105 C 249.704 261.335,254.807 260.427,262.583 258.698 C 328.379 244.076,378.013 207.453,393.385 162.184 C 398.203 147.995,399.867 131.122,397.470 120.772 C 397.266 119.893,396.672 117.112,396.149 114.592 C 384.703 59.449,322.095 15.116,239.414 3.607 C 236.851 3.250,233.855 2.775,232.756 2.552 C 231.037 2.202,225.462 1.533,219.115 0.913 C 218.110 0.815,217.191 0.577,217.019 0.369 C 216.579 -0.161,182.265 -0.166,181.568 0.363 M141.755 25.243 C 148.581 31.849,154.317 34.227,171.105 37.406 C 179.397 38.977,186.959 41.099,195.332 44.205 C 203.678 47.301,202.015 42.962,191.021 32.958 C 182.492 25.197,183.764 24.233,197.603 27.968 C 210.608 31.477,221.100 36.906,235.286 47.464 C 236.974 48.720,238.025 48.769,239.654 47.665 C 242.193 45.945,243.952 47.622,248.097 55.714 C 250.337 60.085,250.930 60.681,252.497 60.135 C 253.985 59.616,257.507 54.841,260.572 49.186 C 263.659 43.492,264.845 43.711,269.024 50.748 C 272.674 56.895,274.002 60.670,274.679 66.820 C 275.350 72.911,275.545 73.132,280.010 72.866 C 285.072 72.565,285.370 73.493,281.627 77.905 C 278.501 81.590,278.950 82.103,287.088 84.141 C 297.439 86.734,307.949 90.378,316.162 94.223 C 320.372 96.194,320.722 96.716,319.288 98.881 C 317.689 101.295,318.349 101.816,323.737 102.391 C 340.120 104.138,356.289 110.924,367.909 120.929 C 375.378 127.359,375.526 128.188,370.646 136.218 C 359.313 154.867,359.525 154.627,353.825 155.271 C 350.412 155.656,349.883 155.994,344.208 161.408 C 335.766 169.463,335.775 169.464,335.521 159.959 C 335.230 149.090,333.592 147.137,324.767 147.137 C 306.149 147.137,289.473 163.105,293.728 176.858 C 296.014 184.250,304.972 185.567,322.387 181.071 C 330.183 179.058,330.958 179.259,330.592 183.194 C 330.380 185.475,331.020 186.335,333.453 187.043 C 336.354 187.886,336.620 189.227,334.438 192.007 C 326.840 201.689,321.605 206.328,311.984 211.908 C 302.226 217.567,297.039 220.240,295.816 220.240 C 294.794 220.240,294.223 219.925,288.154 216.025 C 279.877 210.706,265.787 203.360,258.606 200.621 C 255.515 199.442,254.749 199.402,249.709 200.151 C 234.832 202.362,224.247 208.409,215.712 219.574 C 205.028 233.550,204.976 233.573,203.867 225.073 C 203.232 220.209,202.779 219.174,201.284 219.174 C 198.160 219.174,190.830 231.885,186.561 244.707 C 184.661 250.414,184.020 250.745,180.961 247.603 C 176.309 242.826,171.626 236.595,169.103 231.824 C 166.077 226.103,165.474 225.890,161.454 229.122 C 158.524 231.476,154.240 235.115,152.448 236.771 C 147.948 240.930,146.402 238.847,145.957 228.031 C 145.585 218.968,144.642 218.951,134.088 227.811 C 126.907 233.839,125.639 233.162,128.212 224.671 C 130.582 216.852,128.103 216.492,116.297 222.940 C 111.202 225.724,108.630 227.364,105.326 229.939 C 98.867 234.973,97.980 233.833,100.772 224.078 C 102.387 218.431,102.239 216.511,100.185 216.511 C 96.769 216.511,97.092 214.769,101.435 209.769 C 107.691 202.566,108.123 202.002,108.123 201.029 C 108.123 198.234,103.656 199.095,91.744 204.186 C 87.812 205.866,85.757 204.951,86.800 201.984 C 87.865 198.954,93.365 189.839,96.514 185.885 C 98.505 183.386,98.193 181.891,95.683 181.891 C 92.924 181.891,72.322 185.935,67.799 187.364 C 62.359 189.083,60.984 188.313,62.673 184.494 C 63.628 182.333,68.399 173.604,70.688 169.829 C 73.939 164.466,73.815 164.042,68.262 161.558 C 63.527 159.440,61.497 157.915,61.926 156.798 C 62.162 156.182,62.468 156.105,66.955 155.529 C 75.060 154.488,82.932 152.173,88.016 149.335 C 91.626 147.320,99.596 142.213,100.731 141.188 C 107.139 135.399,83.001 135.175,69.466 140.898 C 64.151 143.146,63.143 142.287,64.843 136.961 C 65.930 133.560,65.657 132.177,63.779 131.557 C 62.463 131.123,55.050 132.093,51.777 133.128 C 44.556 135.412,43.970 133.583,49.482 125.965 C 56.714 115.972,67.905 107.984,86.477 99.555 C 89.357 98.248,89.320 98.286,90.298 95.652 C 90.761 94.407,91.458 94.048,94.028 93.733 C 99.648 93.045,100.399 92.761,100.399 91.324 C 100.399 88.713,88.515 82.076,77.755 78.677 C 75.565 77.985,74.907 77.496,73.597 75.587 C 72.609 74.146,71.467 73.547,66.396 71.810 C 60.839 69.906,59.992 69.319,60.870 67.977 C 61.869 66.454,74.214 62.036,85.619 59.120 C 95.351 56.632,95.390 56.595,93.887 51.471 C 91.990 45.008,92.826 44.597,99.185 48.870 C 103.993 52.101,108.935 54.622,111.972 55.393 C 116.054 56.430,123.221 56.716,125.302 55.925 C 130.387 53.991,116.900 43.487,101.004 37.001 C 95.643 34.814,94.633 33.938,96.250 32.879 C 99.616 30.673,120.712 30.286,132.224 32.219 C 137.253 33.063,138.044 32.200,137.023 26.985 C 136.073 22.134,136.098 21.838,137.471 21.838 C 138.090 21.838,138.907 22.487,141.755 25.243 M197.137 31.986 C 196.259 32.895,196.817 33.925,200.366 37.948 C 206.440 44.833,209.326 50.152,207.601 51.282 C 206.729 51.853,206.131 51.706,200.799 49.608 C 188.180 44.642,182.305 42.808,173.694 41.146 C 170.952 40.617,166.851 39.826,164.581 39.387 C 157.057 37.934,153.120 36.656,147.806 33.939 C 143.195 31.582,141.944 31.609,141.944 34.064 C 141.944 36.071,140.556 36.281,133.955 35.274 C 126.463 34.130,112.832 33.383,110.350 33.979 C 106.561 34.890,107.171 36.256,112.783 39.423 C 121.913 44.577,132.684 54.142,132.312 56.766 C 132.073 58.457,127.727 59.255,119.849 59.053 C 112.994 58.878,110.087 58.160,103.002 54.888 C 99.870 53.442,98.862 53.881,98.557 56.821 C 98.296 59.346,97.703 59.740,93.076 60.460 C 92.051 60.620,88.871 61.330,86.011 62.040 C 68.166 66.463,65.535 68.712,74.490 71.890 C 78.413 73.282,79.051 73.681,80.256 75.496 C 81.138 76.825,81.461 77.069,83.691 78.095 C 97.641 84.514,107.057 90.919,107.057 93.989 C 107.057 94.871,105.936 95.350,102.883 95.775 C 99.458 96.251,98.161 96.774,96.317 98.426 C 95.136 99.484,94.030 100.028,88.549 102.245 C 80.412 105.537,77.458 106.873,72.836 109.351 C 58.285 117.154,46.915 130.409,55.228 129.879 C 56.271 129.812,59.401 129.609,62.184 129.428 C 69.285 128.965,70.353 129.486,69.396 132.952 C 68.154 137.453,69.303 138.501,74.035 137.182 C 81.843 135.006,92.671 134.032,98.584 134.975 C 111.386 137.016,111.484 137.272,101.997 143.939 C 91.415 151.377,84.724 154.817,76.831 156.879 C 72.366 158.045,71.706 158.427,72.016 159.666 C 72.194 160.372,73.298 161.027,75.551 161.764 C 79.252 162.975,79.218 163.509,75.100 168.752 C 68.181 177.560,65.843 182.453,67.812 184.002 C 68.752 184.742,69.193 184.708,72.952 183.616 C 80.458 181.435,87.836 180.139,94.940 179.755 C 97.577 179.612,100.066 179.425,100.472 179.339 C 102.303 178.951,104.128 179.758,104.128 180.954 C 104.128 181.593,103.894 181.920,99.062 188.054 C 92.619 196.234,91.162 199.006,92.518 200.505 C 93.585 201.684,95.356 201.372,102.264 198.792 C 114.844 194.092,118.300 194.945,112.516 201.322 C 110.374 203.684,106.663 208.378,105.737 209.896 C 105.025 211.065,105.054 211.886,105.852 213.182 C 106.743 214.630,106.694 215.351,105.459 218.908 C 103.076 225.776,104.389 226.749,110.902 222.941 C 115.673 220.152,119.080 218.748,125.480 216.932 C 133.635 214.620,134.175 214.849,132.856 220.058 C 131.544 225.241,133.175 225.296,139.928 220.296 C 148.632 213.851,148.677 213.873,148.868 224.509 C 149.090 236.852,149.965 236.835,163.116 224.232 C 167.087 220.427,167.925 220.521,169.093 224.900 C 170.589 230.513,173.967 236.500,178.408 241.411 C 182.190 245.593,183.201 245.111,185.617 237.979 C 189.203 227.389,193.523 220.628,199.131 216.827 C 204.014 213.518,205.203 213.841,205.860 218.657 C 206.586 223.982,208.038 224.306,211.382 219.887 C 218.070 211.053,227.822 203.999,238.285 200.430 C 246.026 197.789,242.904 195.448,229.919 194.160 C 224.473 193.619,224.100 193.189,225.442 188.987 C 228.939 178.037,228.002 166.270,222.211 148.397 C 216.405 130.475,217.002 117.667,224.128 107.261 C 226.819 103.332,226.281 102.726,219.707 102.287 C 202.785 101.158,191.634 96.776,182.543 87.685 C 176.660 81.803,176.415 79.987,181.358 78.932 C 185.199 78.113,200.612 78.803,209.188 80.178 C 216.690 81.381,225.599 83.344,228.999 84.544 C 230.764 85.166,233.393 85.067,235.672 84.292 C 242.953 81.816,250.230 80.967,264.230 80.962 C 273.224 80.959,273.904 80.887,275.033 79.829 C 276.233 78.706,275.726 77.752,273.738 77.393 C 272.127 77.103,271.764 76.448,271.818 73.939 C 271.968 67.012,270.741 61.015,268.045 55.486 C 265.327 49.915,263.876 49.890,260.611 55.360 C 257.751 60.153,254.631 63.737,252.393 64.799 C 249.905 65.980,248.740 64.835,245.827 58.347 C 243.701 53.613,242.764 52.683,240.712 53.272 C 238.487 53.910,238.499 53.915,231.770 48.976 C 216.157 37.517,199.627 29.408,197.137 31.986 M187.883 81.461 C 182.352 81.952,183.335 84.887,190.911 90.504 C 201.607 98.435,220.577 99.898,226.968 93.284 C 231.370 88.729,225.201 85.305,207.457 82.455 C 202.886 81.720,191.477 81.141,187.883 81.461 M252.730 83.883 C 246.367 84.441,236.957 86.321,235.247 87.376 C 234.407 87.893,233.799 89.039,233.422 90.812 C 233.122 92.224,232.416 93.448,230.918 95.155 C 229.012 97.328,229.034 98.066,231.034 98.950 C 233.388 99.991,233.338 100.765,230.739 103.598 C 223.525 111.458,220.595 122.989,222.775 134.936 C 223.428 138.510,224.211 141.527,227.291 152.330 C 231.853 168.327,232.405 175.520,229.845 185.549 C 229.066 188.601,229.107 190.152,229.990 191.036 C 230.756 191.801,230.847 191.823,235.819 192.427 C 252.979 194.511,268.443 200.909,291.047 215.276 C 295.483 218.095,295.776 218.068,302.484 214.214 C 315.450 206.766,322.056 201.883,327.479 195.742 C 330.850 191.924,330.958 190.729,328.090 189.016 C 326.750 188.215,326.584 188.005,326.047 186.441 C 325.166 183.870,324.667 183.702,320.861 184.689 C 301.630 189.675,288.562 184.779,289.584 172.969 C 291.123 155.167,310.099 141.706,329.364 144.751 C 335.508 145.722,337.762 148.483,338.609 156.076 C 339.105 160.523,340.781 160.398,346.045 155.525 C 348.768 153.003,349.839 152.460,352.547 152.226 C 354.580 152.050,356.077 151.562,356.958 150.789 C 357.697 150.140,363.523 142.290,364.856 140.146 C 372.331 128.124,372.327 128.043,363.917 121.692 C 349.963 111.154,335.264 105.990,315.446 104.662 C 308.253 104.180,307.524 103.720,310.302 101.413 C 315.287 97.273,314.787 96.802,298.535 90.317 C 293.343 88.245,283.314 85.667,277.646 84.947 C 275.440 84.667,272.796 84.309,271.771 84.152 C 269.365 83.783,256.017 83.595,252.730 83.883 " stroke="black" fill="white" fill-rule="evenodd"></path></g></svg>
  </mask>
  <image xmlns:xlink="http://www.w3.org/1999/xlink" xlink:href="www/team2.jpg" mask="url(#svgmask2)" width="50vw" height="50vh"></image>
</svg>
